<svg xmlns="http://www.w3.org/2000/svg" viewBox="0 0 128 128" width="128" height="128">
  <defs>
    <linearGradient id="hull" x1="0" y1="0" x2="0" y2="1">
      <stop offset="0%" stop-color="#f8fafc"/>
      <stop offset="55%" stop-color="#cbd5e1"/>
      <stop offset="100%" stop-color="#64748b"/>
    </linearGradient>
    <linearGradient id="trim" x1="0" y1="0" x2="1" y2="1">
      <stop offset="0%" stop-color="#22d3ee"/>
      <stop offset="100%" stop-color="#0284c7"/>
    </linearGradient>
    <linearGradient id="wing" x1="0" y1="0" x2="1" y2="1">
      <stop offset="0%" stop-color="#60a5fa"/>
      <stop offset="100%" stop-color="#1d4ed8"/>
    </linearGradient>
    <linearGradient id="flame" x1="0" y1="0" x2="0" y2="1">
      <stop offset="0%" stop-color="#fde68a"/>
      <stop offset="45%" stop-color="#fb923c"/>
      <stop offset="100%" stop-color="#ef4444"/>
    </linearGradient>
  </defs>

  <path d="M64 6 L79 28 L49 28 Z" fill="#e2e8f0" stroke="#334155" stroke-width="2"/>

  <path d="M50 24 L78 24 L86 90 L42 90 Z" fill="url(#hull)" stroke="#334155" stroke-width="2"/>

  <path d="M50 40 L28 72 L48 74 L52 56 Z" fill="url(#wing)" stroke="#1e3a8a" stroke-width="2"/>
  <path d="M78 40 L100 72 L80 74 L76 56 Z" fill="url(#wing)" stroke="#1e3a8a" stroke-width="2"/>

  <path d="M58 30 L70 30 L74 84 L54 84 Z" fill="url(#trim)" opacity="0.9"/>

  <path d="M56 86 L44 106 L58 100 L64 112 L70 100 L84 106 L72 86 Z" fill="#334155" stroke="#0f172a" stroke-width="2"/>

  <path d="M60 92 L64 116 L68 92 Z" fill="url(#flame)"/>
  <path d="M61 92 L64 106 L67 92 Z" fill="#fff7ed"/>

  <path d="M64 36 C59 36, 55 40, 55 45 C55 50, 59 54, 64 54 C69 54, 73 50, 73 45 C73 40, 69 36, 64 36 Z" fill="#0ea5e9" stroke="#082f49" stroke-width="2"/>
</svg>
